<mxfile host="app.diagrams.net" modified="2021-04-12T22:38:04.095Z" agent="5.0 (X11)" etag="sgTdX6zHlAkzrlcFA7Y4" version="14.5.10" type="github">
  <diagram name="Page-1" id="c7558073-3199-34d8-9f00-42111426c3f3">
    <mxGraphModel dx="775" dy="445" grid="1" gridSize="10" guides="1" tooltips="1" connect="1" arrows="1" fold="1" page="1" pageScale="1" pageWidth="826" pageHeight="1169" background="#ffffff" math="0" shadow="0">
      <root>
        <mxCell id="0" />
        <mxCell id="1" parent="0" />
        <mxCell id="2" value="&lt;p style=&quot;margin: 0px ; margin-top: 4px ; text-align: center ; text-decoration: underline&quot;&gt;&lt;strong&gt;Contact Stability&lt;br&gt;&lt;/strong&gt;&lt;/p&gt;&lt;hr&gt;&lt;div&gt;Pendular &lt;br&gt;&lt;/div&gt;&lt;div&gt;support&lt;/div&gt;&lt;div&gt; polygon&lt;/div&gt;" style="verticalAlign=middle;align=center;overflow=fill;fontSize=12;fontFamily=Helvetica;html=1;rounded=1;fontStyle=1;strokeWidth=3;fillColor=#E6FFCC" parent="1" vertex="1">
          <mxGeometry x="131.5" y="249" width="100" height="80" as="geometry" />
        </mxCell>
        <mxCell id="4" value="Robot Skin" style="whiteSpace=wrap;align=center;verticalAlign=middle;fontStyle=1;strokeWidth=3;fillColor=#FFFFCC" parent="1" vertex="1">
          <mxGeometry x="136.5" y="360" width="90" height="60" as="geometry" />
        </mxCell>
        <mxCell id="6" value="&lt;p style=&quot;margin: 0px ; margin-top: 4px ; text-align: center ; text-decoration: underline&quot;&gt;&lt;strong&gt;LIPM Controller&lt;br&gt;&lt;/strong&gt;&lt;/p&gt;&lt;hr&gt;&lt;p style=&quot;margin: 0px ; margin-left: 8px&quot;&gt;&lt;br&gt;&lt;/p&gt;" style="verticalAlign=middle;align=center;overflow=fill;fontSize=12;fontFamily=Helvetica;html=1;rounded=1;fontStyle=1;strokeWidth=3;fillColor=#E6FFCC" parent="1" vertex="1">
          <mxGeometry x="333.5" y="130" width="130" height="300" as="geometry" />
        </mxCell>
        <mxCell id="7" value="&lt;p style=&quot;margin: 0px ; margin-top: 4px ; text-align: center ; text-decoration: underline&quot;&gt;&lt;strong&gt;&lt;strong&gt;Motion Pattern&lt;/strong&gt;&lt;br&gt;&lt;/strong&gt;&lt;/p&gt;&lt;hr&gt;&lt;div&gt;Motion Pattern&lt;/div&gt;&lt;div&gt;generation&lt;br&gt;&lt;/div&gt;" style="verticalAlign=middle;align=center;overflow=fill;fontSize=12;fontFamily=Helvetica;html=1;rounded=1;fontStyle=1;strokeWidth=3;fillColor=#E6FFCC" parent="1" vertex="1">
          <mxGeometry x="348.5" y="171" width="100" height="80" as="geometry" />
        </mxCell>
        <mxCell id="8" value="&lt;p style=&quot;margin: 0px ; margin-top: 4px ; text-align: center ; text-decoration: underline&quot;&gt;&lt;strong&gt;&lt;strong&gt;Stabilizer&lt;/strong&gt;&lt;br&gt;&lt;/strong&gt;&lt;/p&gt;&lt;hr&gt;&lt;div&gt;Hip position &lt;br&gt;&lt;/div&gt;&lt;div&gt;compensation&lt;br&gt;&lt;/div&gt;" style="verticalAlign=middle;align=center;overflow=fill;fontSize=12;fontFamily=Helvetica;html=1;rounded=1;fontStyle=1;strokeWidth=3;fillColor=#E6FFCC" parent="1" vertex="1">
          <mxGeometry x="348.5" y="310" width="100" height="80" as="geometry" />
        </mxCell>
        <mxCell id="9" value="&lt;p style=&quot;margin: 0px ; margin-top: 4px ; text-align: center ; text-decoration: underline&quot;&gt;&lt;strong&gt;&lt;strong&gt;Robot Model&lt;/strong&gt;&lt;br&gt;&lt;/strong&gt;&lt;/p&gt;&lt;hr&gt;" style="verticalAlign=middle;align=center;overflow=fill;fontSize=12;fontFamily=Helvetica;html=1;rounded=1;fontStyle=1;strokeWidth=3;fillColor=#E6FFCC" parent="1" vertex="1">
          <mxGeometry x="539" y="130" width="130" height="300" as="geometry" />
        </mxCell>
        <mxCell id="10" value="&lt;p style=&quot;margin: 0px ; margin-top: 4px ; text-align: center ; text-decoration: underline&quot;&gt;&lt;strong&gt;&lt;strong&gt;FK&lt;/strong&gt;&lt;br&gt;&lt;/strong&gt;&lt;/p&gt;&lt;hr&gt;&lt;div&gt;Forward&lt;/div&gt;&lt;div&gt;Kinematic&lt;/div&gt;&lt;div&gt;Solver&lt;br&gt;&lt;/div&gt;" style="verticalAlign=middle;align=center;overflow=fill;fontSize=12;fontFamily=Helvetica;html=1;rounded=1;fontStyle=1;strokeWidth=3;fillColor=#E6FFCC" parent="1" vertex="1">
          <mxGeometry x="554" y="171" width="100" height="80" as="geometry" />
        </mxCell>
        <mxCell id="14" value="Task space" style="whiteSpace=wrap;align=center;verticalAlign=middle;fontStyle=1;strokeWidth=3;fillColor=#FFFFCC" parent="1" vertex="1">
          <mxGeometry x="136.49999999999997" y="159.9999999999999" width="90" height="60" as="geometry" />
        </mxCell>
        <mxCell id="15" value="Joint space" style="whiteSpace=wrap;align=center;verticalAlign=middle;fontStyle=1;strokeWidth=3;fillColor=#FFFFCC" parent="1" vertex="1">
          <mxGeometry x="719.9999999999999" y="320" width="90" height="60" as="geometry" />
        </mxCell>
        <mxCell id="37" value="" style="edgeStyle=none;noEdgeStyle=1;strokeColor=#990000;strokeWidth=2" parent="1" source="4" target="2" edge="1">
          <mxGeometry width="100" height="100" relative="1" as="geometry">
            <mxPoint x="172.5" y="259" as="sourcePoint" />
            <mxPoint x="272.5" y="159" as="targetPoint" />
          </mxGeometry>
        </mxCell>
        <mxCell id="11" value="&lt;p style=&quot;margin: 0px ; margin-top: 4px ; text-align: center ; text-decoration: underline&quot;&gt;&lt;strong&gt;&lt;strong&gt;IK&lt;/strong&gt;&lt;br&gt;&lt;/strong&gt;&lt;/p&gt;&lt;hr&gt;&lt;div&gt;Inverse &lt;br&gt;&lt;/div&gt;&lt;div&gt;Kinematic&lt;/div&gt;&lt;div&gt;Solver&lt;br&gt;&lt;/div&gt;" style="verticalAlign=middle;align=center;overflow=fill;fontSize=12;fontFamily=Helvetica;html=1;rounded=1;fontStyle=1;strokeWidth=3;fillColor=#E6FFCC" parent="1" vertex="1">
          <mxGeometry x="554" y="310" width="100" height="80" as="geometry" />
        </mxCell>
        <mxCell id="52" value="Force/&#xa;Proximity" style="text;spacingTop=-5;align=center" parent="1" vertex="1">
          <mxGeometry x="131.5" y="329" width="30" height="61" as="geometry" />
        </mxCell>
        <mxCell id="67" value="" style="edgeStyle=elbowEdgeStyle;elbow=horizontal;strokeColor=#990000;strokeWidth=2;entryX=0;entryY=0.5;entryDx=0;entryDy=0;exitX=1.005;exitY=0.731;exitDx=0;exitDy=0;exitPerimeter=0;" parent="1" source="8" target="11" edge="1">
          <mxGeometry width="100" height="100" relative="1" as="geometry">
            <mxPoint x="605.5000000000002" y="360" as="sourcePoint" />
            <mxPoint x="550.5" y="349" as="targetPoint" />
          </mxGeometry>
        </mxCell>
        <mxCell id="79" value="Joint states&#xa;feedback&#xa;" style="text;spacingTop=-5;align=center" parent="1" vertex="1">
          <mxGeometry x="680" y="175" width="60" height="30" as="geometry" />
        </mxCell>
        <mxCell id="82" value="Feedback in &#xa;cartersian &#xa;space" style="text;spacingTop=-5;align=center" parent="1" vertex="1">
          <mxGeometry x="465.5" y="161" width="69" height="70" as="geometry" />
        </mxCell>
        <mxCell id="83" value="" style="edgeStyle=elbowEdgeStyle;elbow=horizontal;strokeColor=#990000;strokeWidth=2;exitX=0.5;exitY=0;exitDx=0;exitDy=0;entryX=0;entryY=0.75;entryDx=0;entryDy=0;" parent="1" source="2" target="7" edge="1">
          <mxGeometry width="100" height="100" relative="1" as="geometry">
            <mxPoint x="355.5" y="580" as="sourcePoint" />
            <mxPoint x="175.5000000000001" y="650" as="targetPoint" />
            <Array as="points">
              <mxPoint x="181.5" y="270" />
              <mxPoint x="235.5" y="220" />
            </Array>
          </mxGeometry>
        </mxCell>
        <mxCell id="84" value="Support Polygon&#xa;of Next Moition&#xa;" style="text;spacingTop=-5;align=center" parent="1" vertex="1">
          <mxGeometry x="265.50000000000017" y="231.00000000000023" width="30" height="20" as="geometry" />
        </mxCell>
        <mxCell id="zzNHK6mFdvyjyJ4L20ME-98" style="edgeStyle=orthogonalEdgeStyle;rounded=0;orthogonalLoop=1;jettySize=auto;html=1;exitX=0.5;exitY=1;exitDx=0;exitDy=0;" edge="1" parent="1" source="6" target="6">
          <mxGeometry relative="1" as="geometry" />
        </mxCell>
        <mxCell id="zzNHK6mFdvyjyJ4L20ME-103" value="" style="edgeStyle=none;noEdgeStyle=1;strokeColor=#990000;strokeWidth=2;entryX=0;entryY=0.5;entryDx=0;entryDy=0;exitX=1;exitY=0.5;exitDx=0;exitDy=0;" edge="1" parent="1" source="2" target="8">
          <mxGeometry width="100" height="100" relative="1" as="geometry">
            <mxPoint x="231.5" y="349" as="sourcePoint" />
            <mxPoint x="141.5" y="359.28735632183907" as="targetPoint" />
            <Array as="points">
              <mxPoint x="265.5" y="289" />
              <mxPoint x="295.5" y="350" />
            </Array>
          </mxGeometry>
        </mxCell>
        <mxCell id="zzNHK6mFdvyjyJ4L20ME-104" value="Current&#xa;Support Polygon&#xa;" style="text;spacingTop=-5;align=center" vertex="1" parent="1">
          <mxGeometry x="269" y="350" width="30" height="49" as="geometry" />
        </mxCell>
        <mxCell id="zzNHK6mFdvyjyJ4L20ME-106" value="" style="edgeStyle=elbowEdgeStyle;elbow=horizontal;strokeColor=#990000;strokeWidth=2;exitX=1.007;exitY=0.522;exitDx=0;exitDy=0;entryX=0;entryY=0.25;entryDx=0;entryDy=0;exitPerimeter=0;" edge="1" parent="1" source="14" target="7">
          <mxGeometry width="100" height="100" relative="1" as="geometry">
            <mxPoint x="166.5" y="130" as="sourcePoint" />
            <mxPoint x="335.5" y="112" as="targetPoint" />
            <Array as="points">
              <mxPoint x="285.5" y="180" />
              <mxPoint x="220.5" y="101" />
            </Array>
          </mxGeometry>
        </mxCell>
        <mxCell id="zzNHK6mFdvyjyJ4L20ME-107" value="" style="edgeStyle=elbowEdgeStyle;elbow=horizontal;strokeColor=#990000;strokeWidth=2;exitX=0.5;exitY=1;exitDx=0;exitDy=0;entryX=0.5;entryY=0;entryDx=0;entryDy=0;" edge="1" parent="1" source="7" target="8">
          <mxGeometry width="100" height="100" relative="1" as="geometry">
            <mxPoint x="199.5" y="269" as="sourcePoint" />
            <mxPoint x="368.5" y="251" as="targetPoint" />
            <Array as="points">
              <mxPoint x="398.5" y="280" />
              <mxPoint x="253.5" y="240" />
            </Array>
          </mxGeometry>
        </mxCell>
        <mxCell id="zzNHK6mFdvyjyJ4L20ME-108" value="" style="edgeStyle=elbowEdgeStyle;elbow=horizontal;strokeColor=#990000;strokeWidth=2;exitX=0;exitY=0.5;exitDx=0;exitDy=0;entryX=1;entryY=0.25;entryDx=0;entryDy=0;" edge="1" parent="1" source="10" target="8">
          <mxGeometry width="100" height="100" relative="1" as="geometry">
            <mxPoint x="211.5" y="279" as="sourcePoint" />
            <mxPoint x="380.5" y="261" as="targetPoint" />
            <Array as="points">
              <mxPoint x="495.5" y="290" />
              <mxPoint x="265.5" y="250" />
            </Array>
          </mxGeometry>
        </mxCell>
        <mxCell id="zzNHK6mFdvyjyJ4L20ME-109" value="" style="edgeStyle=elbowEdgeStyle;elbow=horizontal;strokeColor=#990000;strokeWidth=2;entryX=0;entryY=0.5;entryDx=0;entryDy=0;exitX=1;exitY=0.5;exitDx=0;exitDy=0;" edge="1" parent="1" source="11" target="15">
          <mxGeometry width="100" height="100" relative="1" as="geometry">
            <mxPoint x="276" y="289" as="sourcePoint" />
            <mxPoint x="445" y="271" as="targetPoint" />
            <Array as="points">
              <mxPoint x="700" y="340" />
              <mxPoint x="330" y="260" />
            </Array>
          </mxGeometry>
        </mxCell>
        <mxCell id="zzNHK6mFdvyjyJ4L20ME-110" value="" style="edgeStyle=elbowEdgeStyle;elbow=horizontal;strokeColor=#990000;strokeWidth=2;exitX=0.5;exitY=0;exitDx=0;exitDy=0;entryX=1;entryY=0.5;entryDx=0;entryDy=0;" edge="1" parent="1" source="15" target="10">
          <mxGeometry width="100" height="100" relative="1" as="geometry">
            <mxPoint x="286" y="299" as="sourcePoint" />
            <mxPoint x="455" y="281" as="targetPoint" />
            <Array as="points">
              <mxPoint x="765" y="280" />
              <mxPoint x="340" y="270" />
            </Array>
          </mxGeometry>
        </mxCell>
        <mxCell id="zzNHK6mFdvyjyJ4L20ME-116" value="Joints &#xa;command&#xa;" style="text;spacingTop=-5;align=center" vertex="1" parent="1">
          <mxGeometry x="669" y="369" width="60" height="30" as="geometry" />
        </mxCell>
      </root>
    </mxGraphModel>
  </diagram>
</mxfile>
